# Blender v2.79 (sub 0) OBJ File: 'arete6.blend'
# www.blender.org
mtllib arete.mtl
o Cubo_Cubo.001
v 4.611749 -5.135019 3.787160
v -4.455130 0.384140 3.763844
v -4.534805 -5.135019 3.787160
v -4.534805 -5.135019 1.110540
v 4.611749 -5.135019 1.110540
v 1.388427 3.888222 2.843897
v 1.388427 3.888222 2.053803
v -1.311483 3.888222 2.843897
v -1.311483 3.888222 2.053803
v 3.712115 0.848581 1.387551
v 2.864462 1.323525 1.626269
v 2.367126 1.798469 1.767400
v 1.951957 2.273412 1.888894
v 1.687384 2.748357 1.966318
v 1.550223 3.223300 2.006456
v -1.473279 3.223300 2.006456
v -1.610440 2.748357 1.966318
v -1.875013 2.273412 1.888894
v -2.290182 1.798469 1.767400
v -2.787518 1.323525 1.626269
v -3.635171 0.848581 1.387551
v -2.290182 1.798469 3.130300
v -1.875013 2.273412 3.008807
v -1.610440 2.748357 2.931383
v -1.473279 3.223300 2.891244
v 1.687384 2.748357 2.931383
v 3.712115 0.848581 3.537638
v 4.532074 0.384140 3.763844
v -3.635171 0.848581 3.537638
v -2.787518 1.323525 3.280246
v 1.550223 3.223300 2.891244
v 1.951957 2.273412 3.008807
v 2.367126 1.798469 3.130300
v 2.864462 1.323525 3.280246
v -4.281554 0.669248 1.188234
v 4.358497 0.669248 3.716632
v 4.358498 0.669248 1.188234
v -4.281554 0.669248 3.716632
v 4.532074 0.384140 1.133856
v -4.455130 0.384140 1.133856
v 4.121308 0.719063 3.650044
v -4.044364 0.719063 1.260467
v -4.044364 0.719063 3.650044
v 4.121308 0.719063 1.260467
v -0.706384 5.212217 2.452733
v -0.357691 2.340473 2.452733
v -1.260594 4.721231 2.452733
v -0.706384 2.472715 2.452733
v 0.731418 2.472716 2.452733
v 1.548181 4.028932 2.452733
v 1.285625 4.721232 2.452733
v 1.038328 5.000372 2.452733
v 1.038330 2.684563 2.452733
v -1.433901 3.293914 2.452733
v -1.260594 2.963703 2.452733
v 1.285627 2.963704 2.452733
v 0.731415 5.212218 2.452733
v 0.382722 5.344460 2.452733
v -0.357692 5.344459 2.452733
v -1.013297 5.000371 2.452733
v -1.013297 2.684562 2.452733
v 0.012517 2.295522 2.452733
v 1.458933 4.391023 2.452733
v -1.523149 4.028930 2.452733
v 0.382725 2.340474 2.452733
v 1.548181 3.656005 2.452733
v 0.012516 5.389411 2.452733
v 1.458934 3.293914 2.452733
v -1.433901 4.391021 2.452733
v -1.523149 3.656004 2.452733
v -0.357692 5.344460 1.897260
v -0.706384 5.212217 1.897260
v -1.013297 5.000371 1.897260
v -1.260594 4.721231 1.897260
v -1.433901 4.391021 1.897260
v -1.523149 4.028930 1.897260
v -1.523149 3.656004 1.897260
v -1.433901 3.293914 1.897260
v -1.260594 2.963703 1.897260
v -1.013297 2.684562 1.897260
v -0.706384 2.472716 1.897260
v -0.357691 2.340474 1.897260
v 0.012517 2.295523 1.897260
v 0.382725 2.340475 1.897260
v 0.731418 2.472716 1.897260
v 1.038330 2.684563 1.897260
v 1.285627 2.963704 1.897260
v 1.458934 3.293915 1.897260
v 1.548181 3.656005 1.897260
v 1.548181 4.028932 1.897260
v 1.458933 4.391023 1.897260
v 1.285625 4.721232 1.897260
v 1.038328 5.000372 1.897260
v 0.731415 5.212218 1.897260
v 0.382722 5.344460 1.897260
v 0.012516 5.389411 1.897260
v 0.012516 5.389410 3.008205
v 0.382722 5.344460 3.008205
v 0.731415 5.212218 3.008205
v 1.038328 5.000372 3.008205
v 1.548181 4.028932 3.008205
v 1.458934 3.293914 3.008205
v -1.260594 2.963703 3.008205
v -1.433901 3.293914 3.008205
v -1.523149 3.656004 3.008205
v -1.523149 4.028930 3.008205
v -1.433901 4.391021 3.008205
v -1.013297 5.000371 3.008205
v -0.357692 5.344459 3.008205
v 1.285625 4.721232 3.008205
v 1.458933 4.391023 3.008205
v 1.548181 3.656005 3.008205
v 1.285627 2.963704 3.008205
v 1.038330 2.684563 3.008205
v 0.731418 2.472716 3.008205
v 0.382725 2.340474 3.008205
v 0.012517 2.295522 3.008205
v -0.357691 2.340473 3.008205
v -0.706384 2.472715 3.008205
v -1.013297 2.684562 3.008205
v -1.260594 4.721231 3.008205
v -0.706384 5.212217 3.008205
v 0.277514 4.917614 3.008205
v 0.923826 3.213436 3.008205
v -0.252484 2.767319 3.008205
v -0.502083 2.861980 3.008205
v -0.721775 3.013623 3.008205
v -0.898793 3.213436 3.008205
v -1.022850 4.235129 3.008205
v 1.111766 3.975941 3.008205
v 1.047882 3.449805 3.008205
v 0.746808 3.013623 3.008205
v 0.527116 2.861981 3.008205
v 0.277517 2.767320 3.008205
v -1.022850 3.449805 3.008205
v -1.086734 3.975940 3.008205
v -0.898793 4.471498 3.008205
v -0.721775 4.671310 3.008205
v -0.502083 4.822953 3.008205
v 0.012516 4.949791 3.008205
v -0.252484 4.917613 3.008205
v 0.527114 4.822954 3.008205
v 0.746807 4.671311 3.008205
v 0.923825 4.471499 3.008205
v 1.047881 4.235130 3.008205
v 1.111766 3.708995 3.008205
v 0.012517 2.735142 3.008205
v -1.086734 3.708994 3.008205
v 0.012516 4.949791 2.963494
v -0.252484 4.917613 2.963494
v 0.277514 4.917614 2.963494
v 0.527114 4.822954 2.963494
v 0.746807 4.671311 2.963494
v 0.923825 4.471499 2.963494
v 1.047881 4.235130 2.963494
v 1.111766 3.975941 2.963494
v 1.111766 3.708995 2.963494
v 1.047882 3.449805 2.963494
v 0.923826 3.213436 2.963494
v 0.746808 3.013623 2.963494
v 0.527116 2.861981 2.963494
v 0.277517 2.767320 2.963494
v 0.012516 2.735142 2.963494
v -0.252484 2.767319 2.963494
v -0.502083 2.861980 2.963494
v -0.721775 3.013623 2.963494
v -0.898793 3.213436 2.963494
v -1.022850 3.449805 2.963494
v -1.086734 3.708994 2.963494
v -1.086734 3.975940 2.963494
v -1.022850 4.235129 2.963494
v -0.898793 4.471498 2.963494
v -0.721775 4.671310 2.963494
v -0.502083 4.822953 2.963494
v 0.012516 4.228660 2.967347
v 0.191988 4.184423 2.967347
v 0.330345 4.061849 2.967347
v 0.373611 3.979413 2.967347
v 0.395892 3.889018 2.967347
v 0.268609 3.553398 2.967347
v 0.191989 3.500511 2.967347
v 0.104938 3.467498 2.967347
v 0.012516 3.456275 2.967347
v -0.243576 3.553398 2.967347
v -0.305313 3.623085 2.967347
v -0.370860 3.795917 2.967347
v -0.370860 3.889017 2.967347
v -0.348579 3.979413 2.967347
v -0.305313 4.061849 2.967347
v -0.243576 4.131536 2.967347
v -0.048613 4.090477 2.967347
v 0.073645 4.090477 2.967347
v 0.131221 4.068642 2.967347
v 0.181899 4.033661 2.967347
v 0.251349 3.933045 2.967347
v 0.266086 3.811678 2.967347
v 0.222733 3.697366 2.967347
v -0.048613 3.594457 2.967347
v -0.106189 3.616293 2.967347
v -0.226317 3.751890 2.967347
v -0.241054 3.873256 2.967347
v -0.226317 3.933045 2.967347
v -0.197701 3.987570 2.967347
v -0.106189 4.068642 2.967347
v -0.079906 4.217437 2.967347
v 0.104937 4.217437 2.967347
v 0.268608 4.131536 2.967347
v 0.395892 3.795917 2.967347
v 0.373612 3.705522 2.967347
v 0.330346 3.623085 2.967347
v -0.079906 3.467497 2.967347
v -0.166956 3.500511 2.967347
v -0.348579 3.705522 2.967347
v -0.166956 4.184422 2.967347
v 0.012516 4.097899 2.967347
v 0.222733 3.987570 2.967347
v 0.266086 3.873257 2.967347
v 0.251350 3.751890 2.967347
v 0.181899 3.651273 2.967347
v 0.131222 3.616293 2.967347
v 0.073645 3.594457 2.967347
v 0.012516 3.587034 2.967347
v -0.156867 3.651273 2.967347
v -0.197701 3.697366 2.967347
v -0.241054 3.811678 2.967347
v -0.156867 4.033661 2.967347
v 0.012516 4.228659 2.983025
v -0.079906 4.217437 2.983025
v 0.104937 4.217437 2.983025
v 0.191988 4.184423 2.983025
v 0.268608 4.131536 2.983025
v 0.330345 4.061849 2.983025
v 0.373611 3.979413 2.983025
v 0.395892 3.889017 2.983025
v 0.395892 3.795917 2.983025
v 0.373612 3.705522 2.983025
v 0.330346 3.623085 2.983025
v 0.268609 3.553398 2.983025
v 0.191989 3.500511 2.983025
v 0.104938 3.467498 2.983025
v 0.012516 3.456275 2.983025
v -0.079906 3.467497 2.983025
v -0.166956 3.500511 2.983025
v -0.243576 3.553398 2.983025
v -0.305313 3.623085 2.983025
v -0.348579 3.705522 2.983025
v -0.370860 3.795916 2.983025
v -0.370860 3.889017 2.983025
v -0.348579 3.979413 2.983025
v -0.305313 4.061849 2.983025
v -0.243576 4.131536 2.983025
v -0.166956 4.184422 2.983025
v 0.012516 4.097899 2.983025
v -0.048613 4.090477 2.983025
v 0.073645 4.090477 2.983025
v 0.131221 4.068642 2.983025
v 0.181899 4.033661 2.983025
v 0.222733 3.987570 2.983025
v 0.251349 3.933045 2.983025
v 0.266086 3.873256 2.983025
v 0.266086 3.811678 2.983025
v 0.251350 3.751890 2.983025
v 0.222733 3.697366 2.983025
v 0.181899 3.651273 2.983025
v 0.131222 3.616293 2.983025
v 0.073645 3.594457 2.983025
v 0.012516 3.587034 2.983025
v -0.048613 3.594457 2.983025
v -0.106189 3.616293 2.983025
v -0.156867 3.651273 2.983025
v -0.197701 3.697366 2.983025
v -0.226317 3.751890 2.983025
v -0.241054 3.811678 2.983025
v -0.241054 3.873255 2.983025
v -0.226317 3.933045 2.983025
v -0.197701 3.987569 2.983025
v -0.156867 4.033661 2.983025
v -0.106189 4.068641 2.983025
v -0.193470 4.234941 1.897260
v -0.093559 4.272833 1.897260
v -0.281410 4.174241 1.897260
v -0.352267 4.094259 1.897260
v -0.401925 3.999644 1.897260
v -0.427497 3.895894 1.897260
v -0.427497 3.789039 1.897260
v -0.401925 3.685291 1.897260
v -0.352267 3.590675 1.897260
v -0.281410 3.510694 1.897260
v -0.193470 3.449993 1.897260
v -0.093559 3.412102 1.897260
v 0.012516 3.399222 1.897260
v 0.118592 3.412102 1.897260
v 0.218503 3.449993 1.897260
v 0.306442 3.510694 1.897260
v 0.377300 3.590676 1.897260
v 0.426958 3.685291 1.897260
v 0.452529 3.789040 1.897260
v 0.452529 3.895896 1.897260
v 0.426957 3.999645 1.897260
v 0.377299 4.094260 1.897260
v 0.306442 4.174241 1.897260
v 0.218502 4.234941 1.897260
v 0.118591 4.272833 1.897260
v 0.012516 4.285712 1.897260
v -0.193470 4.234941 1.981160
v -0.093559 4.272833 1.981159
v -0.281410 4.174241 1.981159
v -0.352268 4.094259 1.981159
v -0.401925 3.999644 1.981159
v -0.427497 3.895894 1.981159
v -0.427497 3.789039 1.981159
v -0.401925 3.685291 1.981159
v -0.352268 3.590675 1.981159
v -0.281410 3.510694 1.981159
v -0.193470 3.449993 1.981159
v -0.093559 3.412102 1.981159
v 0.012516 3.399222 1.981159
v 0.118592 3.412102 1.981159
v 0.218502 3.449993 1.981159
v 0.306442 3.510694 1.981159
v 0.377300 3.590676 1.981159
v 0.426957 3.685291 1.981159
v 0.452529 3.789040 1.981159
v 0.452529 3.895896 1.981159
v 0.426957 3.999645 1.981159
v 0.377299 4.094260 1.981160
v 0.306441 4.174241 1.981160
v 0.218502 4.234941 1.981160
v 0.118591 4.272833 1.981159
v 0.012516 4.285712 1.981159
vn 0.9999 0.0144 0.0000
vn 0.0000 0.0042 1.0000
vn -0.9999 0.0144 0.0000
vn 0.0000 -1.0000 0.0000
vn 0.0000 0.0710 -0.9975
vn 0.0000 0.0042 -1.0000
vn 0.0000 1.0000 0.0000
vn -0.9716 0.2364 0.0000
vn 0.9716 0.2364 0.0000
vn 0.3018 0.9534 0.0000
vn 0.4888 0.8724 0.0000
vn 0.6906 0.7232 0.0000
vn 0.7529 0.6581 0.0000
vn 0.8736 0.4866 0.0000
vn 0.9607 0.2775 0.0000
vn -0.3018 0.9534 0.0000
vn -0.4888 0.8724 0.0000
vn -0.6906 0.7232 0.0000
vn -0.7529 0.6581 0.0000
vn -0.8736 0.4866 0.0000
vn -0.9607 0.2775 0.0000
vn 0.0000 0.7004 -0.7138
vn 0.0000 0.4491 -0.8935
vn 0.0000 0.2848 -0.9586
vn 0.0000 0.2478 -0.9688
vn 0.0000 0.1609 -0.9870
vn 0.0000 0.0842 -0.9964
vn 0.0000 0.0710 0.9975
vn 0.0000 0.6555 0.7552
vn 0.0000 0.4765 0.8792
vn 0.0000 0.3011 0.9536
vn 0.0000 0.2478 0.9688
vn 0.0000 0.1609 0.9870
vn 0.0000 0.0842 0.9964
vn 0.0000 0.1634 0.9866
vn 0.0000 0.1873 -0.9823
vn -0.8542 0.5200 0.0000
vn 0.8542 0.5200 0.0000
vn 0.2055 0.9786 0.0000
vn -0.2055 0.9786 0.0000
vn 0.0000 0.8232 -0.5677
vn 0.0000 0.8007 0.5990
vn 0.7485 -0.6631 -0.0000
vn -0.1205 -0.9927 0.0000
vn -0.3546 -0.9350 0.0000
vn 0.8855 -0.4647 -0.0000
vn -0.5681 -0.8230 0.0000
vn 0.9709 -0.2393 -0.0000
vn -0.7485 -0.6631 0.0000
vn 1.0000 0.0000 0.0000
vn -0.8855 -0.4647 0.0000
vn 0.9709 0.2393 0.0000
vn -0.9709 -0.2393 0.0000
vn 0.8855 0.4647 0.0000
vn -1.0000 0.0000 0.0000
vn 0.7485 0.6631 0.0000
vn -0.9709 0.2393 0.0000
vn 0.5681 0.8230 0.0000
vn -0.8855 0.4647 0.0000
vn 0.3546 0.9350 0.0000
vn -0.7485 0.6631 0.0000
vn 0.1205 0.9927 -0.0000
vn -0.5681 0.8230 0.0000
vn -0.1205 0.9927 0.0000
vn -0.3546 0.9350 0.0000
vn 0.5681 -0.8230 0.0000
vn 0.1205 -0.9927 -0.0000
vn 0.3546 -0.9350 0.0000
vn -0.0000 0.0000 -1.0000
vn -0.0000 0.0000 1.0000
vn -0.0031 0.0044 1.0000
vn 0.0019 0.0050 1.0000
vn -0.0040 -0.0036 1.0000
vn 0.0040 -0.0036 1.0000
vn -0.0019 0.0050 1.0000
vn 0.0031 0.0044 1.0000
vn -0.0048 -0.0025 1.0000
vn 0.0031 -0.0044 1.0000
vn 0.0040 0.0036 1.0000
vn -0.0052 -0.0013 1.0000
vn 0.0019 -0.0050 1.0000
vn 0.0048 0.0025 1.0000
vn -0.0054 0.0000 1.0000
vn 0.0006 -0.0053 1.0000
vn 0.0052 0.0013 1.0000
vn -0.0052 0.0013 1.0000
vn -0.0006 -0.0053 1.0000
vn 0.0054 0.0000 1.0000
vn -0.0048 0.0025 1.0000
vn -0.0006 0.0053 1.0000
vn -0.0019 -0.0050 1.0000
vn 0.0052 -0.0013 1.0000
vn -0.0040 0.0036 1.0000
vn 0.0006 0.0053 1.0000
vn -0.0031 -0.0044 1.0000
vn 0.0048 -0.0025 1.0000
usemtl Material.003
s off
f 39//1 28//1 1//1 5//1
f 28//2 2//2 3//2 1//2
f 2//3 40//3 4//3 3//3
f 3//4 4//4 5//4 1//4
f 16//5 9//5 7//5 15//5
f 40//6 39//6 5//6 4//6
f 6//7 7//7 9//7 8//7
f 25//8 8//8 9//8 16//8
f 15//9 7//9 6//9 31//9
f 44//10 10//10 27//10 41//10
f 10//11 11//11 34//11 27//11
f 11//12 12//12 33//12 34//12
f 12//13 13//13 32//13 33//13
f 13//14 14//14 26//14 32//14
f 14//15 15//15 31//15 26//15
f 43//16 29//16 21//16 42//16
f 29//17 30//17 20//17 21//17
f 30//18 22//18 19//18 20//18
f 22//19 23//19 18//19 19//19
f 23//20 24//20 17//20 18//20
f 24//21 25//21 16//21 17//21
f 42//22 21//22 10//22 44//22
f 21//23 20//23 11//23 10//23
f 20//24 19//24 12//24 11//24
f 19//25 18//25 13//25 12//25
f 18//26 17//26 14//26 13//26
f 17//27 16//27 15//27 14//27
f 31//28 6//28 8//28 25//28
f 41//29 27//29 29//29 43//29
f 27//30 34//30 30//30 29//30
f 34//31 33//31 22//31 30//31
f 33//32 32//32 23//32 22//32
f 32//33 26//33 24//33 23//33
f 26//34 31//34 25//34 24//34
f 28//35 36//35 38//35 2//35
f 40//36 35//36 37//36 39//36
f 2//37 38//37 35//37 40//37
f 39//38 37//38 36//38 28//38
f 37//39 44//39 41//39 36//39
f 38//40 43//40 42//40 35//40
f 35//41 42//41 44//41 37//41
f 36//42 41//42 43//42 38//42
f 56//43 53//43 86//43 87//43
f 46//44 62//44 117//44 118//44
f 48//45 46//45 118//45 119//45
f 68//46 56//46 87//46 88//46
f 61//47 48//47 119//47 120//47
f 66//48 68//48 88//48 89//48
f 55//49 61//49 120//49 103//49
f 50//50 66//50 89//50 90//50
f 54//51 55//51 103//51 104//51
f 63//52 50//52 90//52 91//52
f 70//53 54//53 104//53 105//53
f 51//54 63//54 91//54 92//54
f 64//55 70//55 105//55 106//55
f 52//56 51//56 92//56 93//56
f 69//57 64//57 106//57 107//57
f 57//58 52//58 93//58 94//58
f 47//59 69//59 107//59 121//59
f 58//60 57//60 94//60 95//60
f 60//61 47//61 121//61 108//61
f 67//62 58//62 95//62 96//62
f 45//63 60//63 108//63 122//63
f 59//64 67//64 96//64 71//64
f 59//65 45//65 122//65 109//65
f 67//64 59//64 109//64 97//64
f 60//63 45//63 72//63 73//63
f 58//62 67//62 97//62 98//62
f 47//61 60//61 73//61 74//61
f 57//60 58//60 98//60 99//60
f 69//59 47//59 74//59 75//59
f 52//58 57//58 99//58 100//58
f 64//57 69//57 75//57 76//57
f 51//56 52//56 100//56 110//56
f 70//55 64//55 76//55 77//55
f 63//54 51//54 110//54 111//54
f 54//53 70//53 77//53 78//53
f 50//52 63//52 111//52 101//52
f 55//51 54//51 78//51 79//51
f 66//50 50//50 101//50 112//50
f 61//49 55//49 79//49 80//49
f 68//48 66//48 112//48 102//48
f 48//47 61//47 80//47 81//47
f 56//46 68//46 102//46 113//46
f 46//45 48//45 81//45 82//45
f 53//43 56//43 113//43 114//43
f 62//44 46//44 82//44 83//44
f 49//66 53//66 114//66 115//66
f 65//67 62//67 83//67 84//67
f 65//68 49//68 115//68 116//68
f 49//68 65//68 84//68 85//68
f 62//67 65//67 116//67 117//67
f 53//66 49//66 85//66 86//66
f 89//69 297//69 298//69 90//69
f 45//65 59//65 71//65 72//65
f 113//70 124//70 132//70 114//70
f 122//70 139//70 141//70 109//70
f 99//70 142//70 143//70 100//70
f 103//70 128//70 135//70 104//70
f 114//70 132//70 133//70 115//70
f 100//70 143//70 144//70 110//70
f 104//70 135//70 148//70 105//70
f 115//70 133//70 134//70 116//70
f 110//70 144//70 145//70 111//70
f 105//70 148//70 136//70 106//70
f 116//70 134//70 147//70 117//70
f 111//70 145//70 130//70 101//70
f 106//70 136//70 129//70 107//70
f 117//70 147//70 125//70 118//70
f 101//70 130//70 146//70 112//70
f 107//70 129//70 137//70 121//70
f 109//70 141//70 140//70 97//70
f 118//70 125//70 126//70 119//70
f 112//70 146//70 131//70 102//70
f 121//70 137//70 138//70 108//70
f 97//70 140//70 123//70 98//70
f 119//70 126//70 127//70 120//70
f 102//70 131//70 124//70 113//70
f 108//70 138//70 139//70 122//70
f 98//70 123//70 142//70 99//70
f 120//70 127//70 128//70 103//70
f 123//45 151//45 152//45 142//45
f 127//56 166//56 167//56 128//56
f 124//61 159//61 160//61 132//61
f 139//68 174//68 150//68 141//68
f 142//47 152//47 153//47 143//47
f 128//54 167//54 168//54 135//54
f 132//63 160//63 161//63 133//63
f 143//49 153//49 154//49 144//49
f 135//52 168//52 169//52 148//52
f 133//65 161//65 162//65 134//65
f 144//51 154//51 155//51 145//51
f 148//50 169//50 170//50 136//50
f 134//64 162//64 163//64 147//64
f 145//53 155//53 156//53 130//53
f 136//48 170//48 171//48 129//48
f 147//62 163//62 164//62 125//62
f 130//55 156//55 157//55 146//55
f 129//46 171//46 172//46 137//46
f 141//67 150//67 149//67 140//67
f 125//60 164//60 165//60 126//60
f 146//57 157//57 158//57 131//57
f 137//43 172//43 173//43 138//43
f 140//44 149//44 151//44 123//44
f 126//58 165//58 166//58 127//58
f 131//59 158//59 159//59 124//59
f 138//66 173//66 174//66 139//66
f 287//56 313//56 314//56 288//56
f 82//69 290//69 291//69 83//69
f 75//69 283//69 284//69 76//69
f 90//69 298//69 299//69 91//69
f 83//69 291//69 292//69 84//69
f 76//69 284//69 285//69 77//69
f 91//69 299//69 300//69 92//69
f 84//69 292//69 293//69 85//69
f 77//69 285//69 286//69 78//69
f 92//69 300//69 301//69 93//69
f 85//69 293//69 294//69 86//69
f 78//69 286//69 287//69 79//69
f 93//69 301//69 302//69 94//69
f 71//69 280//69 279//69 72//69
f 86//69 294//69 295//69 87//69
f 79//69 287//69 288//69 80//69
f 94//69 302//69 303//69 95//69
f 72//69 279//69 281//69 73//69
f 87//69 295//69 296//69 88//69
f 80//69 288//69 289//69 81//69
f 95//69 303//69 304//69 96//69
f 73//69 281//69 282//69 74//69
f 88//69 296//69 297//69 89//69
f 81//69 289//69 290//69 82//69
f 96//69 304//69 280//69 71//69
f 74//69 282//69 283//69 75//69
f 306//69 330//69 329//69 328//69 327//69 326//69 325//69 324//69 323//69 322//69 321//69 320//69 319//69 318//69 317//69 316//69 315//69 314//69 313//69 312//69 311//69 310//69 309//69 308//69 307//69 305//69
f 302//45 328//45 329//45 303//45
f 279//66 305//66 307//66 281//66
f 295//59 321//59 322//59 296//59
f 288//58 314//58 315//58 289//58
f 303//44 329//44 330//44 304//44
f 281//43 307//43 308//43 282//43
f 296//57 322//57 323//57 297//57
f 289//60 315//60 316//60 290//60
f 304//67 330//67 306//67 280//67
f 282//46 308//46 309//46 283//46
f 297//55 323//55 324//55 298//55
f 290//62 316//62 317//62 291//62
f 283//48 309//48 310//48 284//48
f 298//53 324//53 325//53 299//53
f 291//64 317//64 318//64 292//64
f 284//50 310//50 311//50 285//50
f 299//51 325//51 326//51 300//51
f 292//65 318//65 319//65 293//65
f 285//52 311//52 312//52 286//52
f 300//49 326//49 327//49 301//49
f 293//63 319//63 320//63 294//63
f 286//54 312//54 313//54 287//54
f 301//47 327//47 328//47 302//47
f 280//68 306//68 305//68 279//68
f 294//61 320//61 321//61 295//61
usemtl Material.004
f 173//71 190//71 214//71 174//71
f 151//72 206//72 176//72 152//72
f 166//73 184//73 185//73 167//73
f 159//74 210//74 180//74 160//74
f 174//75 214//75 205//75 150//75
f 152//76 176//76 207//76 153//76
f 167//77 185//77 213//77 168//77
f 160//78 180//78 181//78 161//78
f 153//79 207//79 177//79 154//79
f 168//80 213//80 186//80 169//80
f 161//81 181//81 182//81 162//81
f 154//82 177//82 178//82 155//82
f 169//83 186//83 187//83 170//83
f 162//84 182//84 183//84 163//84
f 155//85 178//85 179//85 156//85
f 170//86 187//86 188//86 171//86
f 163//87 183//87 211//87 164//87
f 156//88 179//88 208//88 157//88
f 171//89 188//89 189//89 172//89
f 150//90 205//90 175//90 149//90
f 164//91 211//91 212//91 165//91
f 157//92 208//92 209//92 158//92
f 172//93 189//93 190//93 173//93
f 149//94 175//94 206//94 151//94
f 165//95 212//95 184//95 166//95
f 158//96 209//96 210//96 159//96
usemtl Material.005
f 207//56 231//56 232//56 177//56
f 216//49 258//49 257//49 194//49
f 176//58 230//58 231//58 207//58
f 194//47 257//47 256//47 193//47
f 206//60 229//60 230//60 176//60
f 193//45 256//45 255//45 192//45
f 175//62 227//62 229//62 206//62
f 192//44 255//44 253//44 215//44
f 205//64 228//64 227//64 175//64
f 215//67 253//67 254//67 191//67
f 214//65 252//65 228//65 205//65
f 191//68 254//68 278//68 204//68
f 190//63 251//63 252//63 214//63
f 204//66 278//66 277//66 226//66
f 189//61 250//61 251//61 190//61
f 226//43 277//43 276//43 203//43
f 188//59 249//59 250//59 189//59
f 203//46 276//46 275//46 202//46
f 187//57 248//57 249//57 188//57
f 202//48 275//48 274//48 201//48
f 186//55 247//55 248//55 187//55
f 201//50 274//50 273//50 225//50
f 213//53 246//53 247//53 186//53
f 225//52 273//52 272//52 200//52
f 185//51 245//51 246//51 213//51
f 200//54 272//54 271//54 224//54
f 236//70 262//70 263//70 237//70
f 251//70 277//70 278//70 252//70
f 229//70 255//70 256//70 230//70
f 244//70 270//70 271//70 245//70
f 237//70 263//70 264//70 238//70
f 252//70 278//70 254//70 228//70
f 230//70 256//70 257//70 231//70
f 245//70 271//70 272//70 246//70
f 238//70 264//70 265//70 239//70
f 231//70 257//70 258//70 232//70
f 246//70 272//70 273//70 247//70
f 239//70 265//70 266//70 240//70
f 232//70 258//70 259//70 233//70
f 247//70 273//70 274//70 248//70
f 240//70 266//70 267//70 241//70
f 233//70 259//70 260//70 234//70
f 248//70 274//70 275//70 249//70
f 241//70 267//70 268//70 242//70
f 234//70 260//70 261//70 235//70
f 249//70 275//70 276//70 250//70
f 228//70 254//70 253//70 227//70
f 242//70 268//70 269//70 243//70
f 235//70 261//70 262//70 236//70
f 250//70 276//70 277//70 251//70
f 227//70 253//70 255//70 229//70
f 243//70 269//70 270//70 244//70
f 195//51 259//51 258//51 216//51
f 177//54 232//54 233//54 178//54
f 217//53 260//53 259//53 195//53
f 178//52 233//52 234//52 179//52
f 196//55 261//55 260//55 217//55
f 179//50 234//50 235//50 208//50
f 218//57 262//57 261//57 196//57
f 208//48 235//48 236//48 209//48
f 197//59 263//59 262//59 218//59
f 209//46 236//46 237//46 210//46
f 219//61 264//61 263//61 197//61
f 210//43 237//43 238//43 180//43
f 220//63 265//63 264//63 219//63
f 180//66 238//66 239//66 181//66
f 221//65 266//65 265//65 220//65
f 181//68 239//68 240//68 182//68
f 222//64 267//64 266//64 221//64
f 182//67 240//67 241//67 183//67
f 198//62 268//62 267//62 222//62
f 183//44 241//44 242//44 211//44
f 199//60 269//60 268//60 198//60
f 211//45 242//45 243//45 212//45
f 223//58 270//58 269//58 199//58
f 212//47 243//47 244//47 184//47
f 224//56 271//56 270//56 223//56
f 184//49 244//49 245//49 185//49
usemtl Material.006
f 191//70 204//70 226//70 203//70 202//70 201//70 225//70 200//70 224//70 223//70 199//70 198//70 222//70 221//70 220//70 219//70 197//70 218//70 196//70 217//70 195//70 216//70 194//70 193//70 192//70 215//70
