# Blender v2.79 (sub 0) OBJ File: 'boton2.blend'
# www.blender.org
mtllib boton2.mtl
o Círculo
v 0.000000 1.000000 0.000000
v -0.239316 0.970942 0.000000
v -0.464723 0.885456 0.000000
v -0.663123 0.748511 0.000000
v -0.822984 0.568065 0.000000
v -0.935016 0.354605 0.000000
v -0.992709 0.120537 0.000000
v -0.992709 -0.120537 -0.000000
v -0.935016 -0.354605 -0.000000
v -0.822984 -0.568065 -0.000000
v -0.663123 -0.748511 -0.000000
v -0.464723 -0.885456 -0.000000
v -0.239315 -0.970942 -0.000000
v 0.000000 -1.000000 -0.000000
v 0.239316 -0.970942 -0.000000
v 0.464724 -0.885456 -0.000000
v 0.663123 -0.748510 -0.000000
v 0.822984 -0.568064 -0.000000
v 0.935017 -0.354604 -0.000000
v 0.992709 -0.120536 -0.000000
v 0.992709 0.120538 0.000000
v 0.935016 0.354606 0.000000
v 0.822983 0.568066 0.000000
v 0.663122 0.748512 0.000000
v 0.464722 0.885457 0.000000
v 0.239314 0.970942 0.000000
v -0.239316 0.970942 0.000000
v 0.000000 1.000000 0.000000
v -0.464723 0.885456 0.000000
v -0.663123 0.748511 0.000000
v -0.822984 0.568065 0.000000
v -0.935016 0.354605 0.000000
v -0.992709 0.120537 0.000000
v -0.992709 -0.120537 -0.000000
v -0.935016 -0.354605 -0.000000
v -0.822984 -0.568065 -0.000000
v -0.663123 -0.748511 -0.000000
v -0.464723 -0.885456 -0.000000
v -0.239315 -0.970942 -0.000000
v 0.000000 -1.000000 -0.000000
v 0.239316 -0.970942 -0.000000
v 0.464724 -0.885456 -0.000000
v 0.663123 -0.748510 -0.000000
v 0.822984 -0.568064 -0.000000
v 0.935017 -0.354604 -0.000000
v 0.992709 -0.120536 -0.000000
v 0.992709 0.120538 0.000000
v 0.935016 0.354606 0.000000
v 0.822983 0.568066 0.000000
v 0.663122 0.748512 0.000000
v 0.464722 0.885457 0.000000
v 0.239314 0.970942 0.000000
v -0.239316 0.970942 0.000000
v 0.000000 1.000000 0.000000
v -0.464723 0.885456 0.000000
v -0.663123 0.748511 0.000000
v -0.822984 0.568065 0.000000
v -0.935016 0.354605 0.000000
v -0.992709 0.120537 0.000000
v -0.992709 -0.120537 -0.000000
v -0.935016 -0.354605 -0.000000
v -0.822984 -0.568065 -0.000000
v -0.663123 -0.748511 -0.000000
v -0.464723 -0.885456 -0.000000
v -0.239315 -0.970942 -0.000000
v 0.000000 -1.000000 -0.000000
v 0.239316 -0.970942 -0.000000
v 0.464724 -0.885456 -0.000000
v 0.663123 -0.748510 -0.000000
v 0.822984 -0.568064 -0.000000
v 0.935017 -0.354604 -0.000000
v 0.992709 -0.120536 -0.000000
v 0.992709 0.120538 0.000000
v 0.935016 0.354606 0.000000
v 0.822983 0.568066 0.000000
v 0.663122 0.748512 0.000000
v 0.464722 0.885457 0.000000
v 0.239314 0.970942 0.000000
v -0.239316 0.970942 0.000000
v -0.464723 0.885456 0.000000
v -0.663123 0.748511 0.000000
v -0.822984 0.568065 0.000000
v -0.935016 0.354605 0.000000
v -0.992709 0.120537 0.000000
v -0.992709 -0.120537 -0.000000
v -0.935016 -0.354605 -0.000000
v -0.822984 -0.568065 -0.000000
v -0.663123 -0.748511 -0.000000
v -0.464723 -0.885456 -0.000000
v -0.239315 -0.970942 -0.000000
v 0.000000 -1.000000 -0.000000
v 0.239316 -0.970942 -0.000000
v 0.464724 -0.885456 -0.000000
v 0.663123 -0.748510 -0.000000
v 0.822984 -0.568064 -0.000000
v 0.935017 -0.354604 -0.000000
v 0.992709 -0.120536 -0.000000
v 0.992709 0.120538 0.000000
v 0.935016 0.354606 0.000000
v 0.822983 0.568066 0.000000
v 0.663122 0.748512 0.000000
v 0.464722 0.885457 0.000000
v 0.239314 0.970942 0.000000
v 0.000000 1.000000 0.000000
v -0.464723 0.885456 0.787058
v -0.239316 0.970942 0.787058
v -0.663123 0.748511 0.787058
v -0.822984 0.568065 0.787058
v -0.935016 0.354605 0.787058
v -0.992709 0.120537 0.787058
v -0.992709 -0.120537 0.787058
v -0.935016 -0.354605 0.787058
v -0.822984 -0.568065 0.787058
v -0.663123 -0.748511 0.787058
v -0.464723 -0.885456 0.787058
v -0.239315 -0.970942 0.787058
v 0.000000 -1.000000 0.787058
v 0.239316 -0.970942 0.787058
v 0.464724 -0.885456 0.787058
v 0.663123 -0.748510 0.787058
v 0.822984 -0.568064 0.787058
v 0.935017 -0.354604 0.787058
v 0.992709 -0.120536 0.787058
v 0.992709 0.120538 0.787058
v 0.935016 0.354606 0.787058
v 0.822983 0.568066 0.787058
v 0.663122 0.748512 0.787058
v 0.464722 0.885457 0.787058
v 0.239314 0.970942 0.787058
v 0.000000 1.000000 0.787058
v -0.220789 0.420678 0.787058
v -0.113698 0.461292 0.787058
v -0.315048 0.355615 0.787058
v -0.390997 0.269886 0.787058
v -0.444224 0.168472 0.787058
v -0.471633 0.057267 0.787058
v -0.471633 -0.057267 0.787058
v -0.444224 -0.168472 0.787058
v -0.390997 -0.269886 0.787058
v -0.315048 -0.355615 0.787058
v -0.220789 -0.420678 0.787058
v -0.113698 -0.461292 0.787058
v 0.000000 -0.475097 0.787058
v 0.113698 -0.461292 0.787058
v 0.220789 -0.420677 0.787058
v 0.315048 -0.355615 0.787058
v 0.390997 -0.269886 0.787058
v 0.444224 -0.168471 0.787058
v 0.471633 -0.057266 0.787058
v 0.471633 0.057267 0.787058
v 0.444223 0.168472 0.787058
v 0.390997 0.269886 0.787058
v 0.315047 0.355616 0.787058
v 0.220788 0.420678 0.787058
v 0.113697 0.461292 0.787058
v -0.000000 0.475097 0.787058
v -0.220789 0.420678 0.787058
v -0.113698 0.461292 0.787058
v -0.315048 0.355615 0.787058
v -0.390997 0.269886 0.787058
v -0.444224 0.168472 0.787058
v -0.471633 0.057267 0.787058
v -0.471633 -0.057267 0.787058
v -0.444224 -0.168472 0.787058
v -0.390997 -0.269886 0.787058
v -0.315048 -0.355615 0.787058
v -0.220789 -0.420678 0.787058
v -0.113698 -0.461292 0.787058
v 0.000000 -0.475097 0.787058
v 0.113698 -0.461292 0.787058
v 0.220789 -0.420677 0.787058
v 0.315048 -0.355615 0.787058
v 0.390997 -0.269886 0.787058
v 0.444224 -0.168471 0.787058
v 0.471633 -0.057266 0.787058
v 0.471633 0.057267 0.787058
v 0.444223 0.168472 0.787058
v 0.390997 0.269886 0.787058
v 0.315047 0.355616 0.787058
v 0.220788 0.420678 0.787058
v 0.113697 0.461292 0.787058
v -0.000000 0.475097 0.787058
v -0.220789 0.420678 0.922282
v -0.113698 0.461292 0.922282
v -0.315048 0.355615 0.922282
v -0.390997 0.269886 0.922282
v -0.444224 0.168472 0.922282
v -0.471633 0.057267 0.922282
v -0.471633 -0.057267 0.922282
v -0.444224 -0.168472 0.922282
v -0.390997 -0.269886 0.922282
v -0.315048 -0.355615 0.922282
v -0.220789 -0.420678 0.922282
v -0.113698 -0.461292 0.922282
v 0.000000 -0.475097 0.922282
v 0.113698 -0.461292 0.922282
v 0.220789 -0.420677 0.922282
v 0.315048 -0.355615 0.922282
v 0.390997 -0.269886 0.922282
v 0.444224 -0.168471 0.922282
v 0.471633 -0.057266 0.922282
v 0.471633 0.057267 0.922282
v 0.444223 0.168472 0.922282
v 0.390997 0.269886 0.922282
v 0.315047 0.355616 0.922282
v 0.220788 0.420678 0.922282
v 0.113697 0.461292 0.922282
v -0.000000 0.475097 0.922282
v -0.239316 0.970942 0.000000
v 0.000000 1.000000 0.000000
v -0.464723 0.885456 0.000000
v -0.663123 0.748511 0.000000
v -0.822984 0.568065 0.000000
v -0.935016 0.354605 0.000000
v -0.992709 0.120537 0.000000
v -0.992709 -0.120537 -0.000000
v -0.935016 -0.354605 -0.000000
v -0.822984 -0.568065 -0.000000
v -0.663123 -0.748511 -0.000000
v -0.464723 -0.885456 -0.000000
v -0.239315 -0.970942 -0.000000
v 0.000000 -1.000000 -0.000000
v 0.239316 -0.970942 -0.000000
v 0.464724 -0.885456 -0.000000
v 0.663123 -0.748510 -0.000000
v 0.822984 -0.568064 -0.000000
v 0.935017 -0.354604 -0.000000
v 0.992709 -0.120536 -0.000000
v 0.992709 0.120538 0.000000
v 0.935016 0.354606 0.000000
v 0.822983 0.568066 0.000000
v 0.663122 0.748512 0.000000
v 0.464722 0.885457 0.000000
v 0.239314 0.970942 0.000000
v -0.040439 0.164069 0.006039
v -0.000000 0.168980 0.006039
v -0.078529 0.149624 0.006039
v -0.112054 0.126483 0.006039
v -0.139067 0.095991 0.006039
v -0.157999 0.059921 0.006039
v -0.167747 0.020368 0.006039
v -0.167747 -0.020368 0.006039
v -0.157999 -0.059921 0.006039
v -0.139067 -0.095991 0.006039
v -0.112054 -0.126483 0.006039
v -0.078529 -0.149624 0.006039
v -0.040439 -0.164069 0.006039
v 0.000000 -0.168979 0.006039
v 0.040439 -0.164069 0.006039
v 0.078529 -0.149623 0.006039
v 0.112054 -0.126483 0.006039
v 0.139067 -0.095991 0.006039
v 0.157998 -0.059921 0.006039
v 0.167747 -0.020368 0.006039
v 0.167747 0.020369 0.006039
v 0.157998 0.059921 0.006039
v 0.139067 0.095992 0.006039
v 0.112054 0.126483 0.006039
v 0.078528 0.149624 0.006039
v 0.040439 0.164069 0.006039
v -0.040439 0.164069 0.040411
v -0.000000 0.168980 0.040411
v -0.078529 0.149624 0.040411
v -0.112054 0.126483 0.040411
v -0.139067 0.095991 0.040411
v -0.157999 0.059921 0.040411
v -0.167747 0.020368 0.040411
v -0.167747 -0.020368 0.040411
v -0.157999 -0.059921 0.040411
v -0.139067 -0.095991 0.040411
v -0.112054 -0.126483 0.040411
v -0.078529 -0.149624 0.040411
v -0.040439 -0.164069 0.040411
v 0.000000 -0.168979 0.040411
v 0.040439 -0.164069 0.040411
v 0.078529 -0.149623 0.040411
v 0.112054 -0.126483 0.040411
v 0.139067 -0.095991 0.040411
v 0.157998 -0.059921 0.040411
v 0.167747 -0.020368 0.040411
v 0.167747 0.020369 0.040411
v 0.157998 0.059921 0.040411
v 0.139067 0.095992 0.040411
v 0.112054 0.126483 0.040411
v 0.078528 0.149624 0.040411
v 0.040439 0.164069 0.040411
vn -0.0071 0.0018 -1.0000
vn 0.0026 0.0068 -1.0000
vn 0.0065 -0.0034 -1.0000
vn -0.0073 0.0000 -1.0000
vn 0.0009 0.0073 -1.0000
vn 0.0071 -0.0018 -1.0000
vn -0.0071 -0.0018 -1.0000
vn -0.0009 0.0073 -1.0000
vn 0.0073 0.0000 -1.0000
vn -0.0065 -0.0034 -1.0000
vn -0.0026 0.0068 -1.0000
vn 0.0071 0.0018 -1.0000
vn -0.0055 -0.0049 -1.0000
vn 0.0009 -0.0073 -1.0000
vn -0.0042 0.0060 -1.0000
vn 0.0065 0.0034 -1.0000
vn -0.0042 -0.0060 -1.0000
vn 0.0026 -0.0068 -1.0000
vn -0.0055 0.0049 -1.0000
vn 0.0055 0.0049 -1.0000
vn -0.0026 -0.0068 -1.0000
vn 0.0042 -0.0060 -1.0000
vn -0.0065 0.0034 -1.0000
vn 0.0042 0.0060 -1.0000
vn -0.0009 -0.0073 -1.0000
vn 0.0055 -0.0049 -1.0000
vn 0.0000 0.0000 -1.0000
vn 0.0000 0.0000 1.0000
vn 0.0208 -0.0843 0.9962
vn 0.0403 -0.0769 0.9962
vn -0.6847 0.2597 0.6809
vn -0.7270 0.0883 0.6809
vn 0.6994 0.0849 0.7097
vn 0.6587 0.2498 0.7097
vn 0.6847 0.2597 0.6809
vn 0.7270 0.0883 0.6809
vn -0.3274 0.6238 0.7097
vn -0.1686 0.6840 0.7097
vn -0.4672 0.5273 0.7097
vn -0.5798 0.4002 0.7097
vn -0.6587 0.2498 0.7097
vn -0.6994 0.0849 0.7097
vn -0.6994 -0.0849 0.7097
vn -0.6587 -0.2498 0.7097
vn -0.5798 -0.4002 0.7097
vn -0.4672 -0.5273 0.7097
vn -0.3274 -0.6238 0.7097
vn -0.1686 -0.6840 0.7097
vn 0.0000 -0.7045 0.7097
vn 0.1686 -0.6840 0.7097
vn 0.3274 -0.6238 0.7097
vn 0.4672 -0.5273 0.7097
vn 0.5798 -0.4002 0.7097
vn 0.6587 -0.2498 0.7097
vn 0.6994 -0.0849 0.7097
vn 0.5798 0.4002 0.7097
vn 0.4672 0.5273 0.7097
vn 0.3274 0.6238 0.7097
vn 0.1686 0.6840 0.7097
vn 0.0000 0.7045 0.7097
vn 0.1752 -0.7110 0.6809
vn 0.0000 -0.7323 0.6809
vn -0.7270 -0.0883 0.6809
vn 0.6027 0.4160 0.6809
vn 0.3403 -0.6484 0.6809
vn -0.6847 -0.2597 0.6809
vn 0.4856 0.5481 0.6809
vn 0.4856 -0.5481 0.6809
vn -0.6027 -0.4160 0.6809
vn 0.3403 0.6484 0.6809
vn -0.3403 0.6484 0.6809
vn -0.1752 0.7110 0.6809
vn 0.6027 -0.4160 0.6809
vn -0.4856 -0.5481 0.6809
vn 0.1752 0.7110 0.6809
vn -0.4856 0.5481 0.6809
vn 0.6847 -0.2597 0.6809
vn -0.3403 -0.6484 0.6809
vn 0.0000 0.7323 0.6809
vn -0.6027 0.4160 0.6809
vn 0.7270 -0.0883 0.6809
vn -0.1752 -0.7110 0.6809
vn -0.0576 0.0650 0.9962
vn -0.0714 0.0493 0.9962
vn 0.0714 0.0493 0.9962
vn 0.0576 0.0650 0.9962
vn -0.0403 -0.0769 0.9962
vn -0.0208 -0.0843 0.9962
vn 0.0576 -0.0650 0.9962
vn -0.0812 0.0308 0.9962
vn 0.0403 0.0769 0.9962
vn 0.0000 -0.0868 0.9962
vn 0.0714 -0.0493 0.9962
vn -0.0862 0.0105 0.9962
vn 0.0208 0.0843 0.9962
vn 0.0812 -0.0308 0.9962
vn -0.0862 -0.0104 0.9962
vn 0.0000 0.0868 0.9962
vn 0.0862 -0.0104 0.9962
vn -0.0812 -0.0308 0.9962
vn -0.0208 0.0843 0.9962
vn 0.0862 0.0105 0.9962
vn -0.0714 -0.0493 0.9962
vn -0.0403 0.0769 0.9962
vn 0.0812 0.0308 0.9962
vn -0.0576 -0.0650 0.9962
vn 0.5602 -0.3866 -0.7326
vn 0.4513 -0.5095 -0.7326
vn 0.4856 -0.5481 -0.6809
vn 0.6027 -0.4160 -0.6809
vn -0.6757 0.0820 -0.7326
vn -0.6364 0.2413 -0.7326
vn -0.6847 0.2597 -0.6809
vn -0.7270 0.0883 -0.6809
vn 0.1629 0.6608 -0.7326
vn 0.3163 0.6027 -0.7326
vn 0.3403 0.6484 -0.6809
vn 0.1752 0.7110 -0.6809
vn 0.6364 -0.2413 -0.7326
vn 0.6847 -0.2597 -0.6809
vn -0.6757 -0.0820 -0.7326
vn -0.7270 -0.0883 -0.6809
vn 0.0000 0.6807 -0.7326
vn 0.0000 0.7323 -0.6809
vn 0.6757 -0.0820 -0.7326
vn 0.7270 -0.0883 -0.6809
vn -0.6364 -0.2413 -0.7326
vn -0.6847 -0.2597 -0.6809
vn -0.1629 0.6608 -0.7326
vn -0.1752 0.7110 -0.6809
vn 0.6757 0.0820 -0.7326
vn 0.7270 0.0883 -0.6809
vn -0.5602 -0.3866 -0.7326
vn -0.6027 -0.4160 -0.6809
vn -0.3163 0.6027 -0.7326
vn -0.3403 0.6484 -0.6809
vn 0.6364 0.2413 -0.7326
vn 0.6847 0.2597 -0.6809
vn -0.4513 -0.5095 -0.7326
vn -0.4856 -0.5481 -0.6809
vn 0.1629 -0.6608 -0.7326
vn 0.0000 -0.6807 -0.7326
vn 0.0000 -0.7323 -0.6809
vn 0.1752 -0.7110 -0.6809
vn -0.4513 0.5095 -0.7326
vn -0.4856 0.5481 -0.6809
vn 0.5602 0.3866 -0.7326
vn 0.6027 0.4160 -0.6809
vn -0.3163 -0.6027 -0.7326
vn -0.3403 -0.6484 -0.6809
vn 0.3163 -0.6027 -0.7326
vn 0.3403 -0.6484 -0.6809
vn -0.5602 0.3866 -0.7326
vn -0.6027 0.4160 -0.6809
vn 0.4513 0.5095 -0.7326
vn 0.4856 0.5481 -0.6809
vn -0.1629 -0.6608 -0.7326
vn -0.1752 -0.7110 -0.6809
usemtl Material.001
s off
f 228//1 227//1 253//1 254//1
f 221//2 220//2 246//2 247//2
f 214//3 213//3 239//3 240//3
f 229//4 228//4 254//4 255//4
f 222//5 221//5 247//5 248//5
f 215//6 214//6 240//6 241//6
f 230//7 229//7 255//7 256//7
f 223//8 222//8 248//8 249//8
f 216//9 215//9 241//9 242//9
f 231//10 230//10 256//10 257//10
f 224//11 223//11 249//11 250//11
f 217//12 216//12 242//12 243//12
f 232//13 231//13 257//13 258//13
f 209//14 210//14 236//14 235//14
f 225//15 224//15 250//15 251//15
f 218//16 217//16 243//16 244//16
f 233//17 232//17 258//17 259//17
f 211//18 209//18 235//18 237//18
f 226//19 225//19 251//19 252//19
f 219//20 218//20 244//20 245//20
f 234//21 233//21 259//21 260//21
f 212//22 211//22 237//22 238//22
f 227//23 226//23 252//23 253//23
f 220//24 219//24 245//24 246//24
f 210//25 234//25 260//25 236//25
f 213//26 212//26 238//26 239//26
f 261//27 262//27 286//27 285//27 284//27 283//27 282//27 281//27 280//27 279//27 278//27 277//27 276//27 275//27 274//27 273//27 272//27 271//27 270//27 269//27 268//27 267//27 266//27 265//27 264//27 263//27
s 1
f 3//28 2//28 209//29 211//30
f 39//28 40//28 66//28 65//28
f 2//28 3//28 29//28 27//28
f 17//28 18//28 44//28 43//28
f 10//28 11//28 37//28 36//28
f 25//28 26//28 52//28 51//28
f 3//28 4//28 30//28 29//28
f 18//28 19//28 45//28 44//28
f 11//28 12//28 38//28 37//28
f 26//28 1//28 28//28 52//28
f 4//28 5//28 31//28 30//28
f 19//28 20//28 46//28 45//28
f 12//28 13//28 39//28 38//28
f 5//28 6//28 32//28 31//28
f 20//28 21//28 47//28 46//28
f 13//28 14//28 40//28 39//28
f 6//28 7//28 33//28 32//28
f 21//28 22//28 48//28 47//28
f 14//28 15//28 41//28 40//28
f 7//28 8//28 34//28 33//28
f 22//28 23//28 49//28 48//28
f 15//28 16//28 42//28 41//28
f 8//28 9//28 35//28 34//28
f 23//28 24//28 50//28 49//28
f 1//28 2//28 27//28 28//28
f 16//28 17//28 43//28 42//28
f 9//28 10//28 36//28 35//28
f 24//28 25//28 51//28 50//28
f 109//31 110//32 136//28 135//28
f 32//28 33//28 59//28 58//28
f 47//28 48//28 74//28 73//28
f 40//28 41//28 67//28 66//28
f 33//28 34//28 60//28 59//28
f 48//28 49//28 75//28 74//28
f 41//28 42//28 68//28 67//28
f 34//28 35//28 61//28 60//28
f 49//28 50//28 76//28 75//28
f 28//28 27//28 53//28 54//28
f 42//28 43//28 69//28 68//28
f 35//28 36//28 62//28 61//28
f 50//28 51//28 77//28 76//28
f 27//28 29//28 55//28 53//28
f 43//28 44//28 70//28 69//28
f 36//28 37//28 63//28 62//28
f 51//28 52//28 78//28 77//28
f 29//28 30//28 56//28 55//28
f 44//28 45//28 71//28 70//28
f 37//28 38//28 64//28 63//28
f 52//28 28//28 54//28 78//28
f 30//28 31//28 57//28 56//28
f 45//28 46//28 72//28 71//28
f 38//28 39//28 65//28 64//28
f 31//28 32//28 58//28 57//28
f 46//28 47//28 73//28 72//28
f 98//33 99//34 125//35 124//36
f 55//28 80//37 79//38 53//28
f 56//28 81//39 80//37 55//28
f 57//28 82//40 81//39 56//28
f 58//28 83//41 82//40 57//28
f 59//28 84//42 83//41 58//28
f 60//28 85//43 84//42 59//28
f 61//28 86//44 85//43 60//28
f 62//28 87//45 86//44 61//28
f 63//28 88//46 87//45 62//28
f 64//28 89//47 88//46 63//28
f 65//28 90//48 89//47 64//28
f 66//28 91//49 90//48 65//28
f 67//28 92//50 91//49 66//28
f 68//28 93//51 92//50 67//28
f 69//28 94//52 93//51 68//28
f 70//28 95//53 94//52 69//28
f 71//28 96//54 95//53 70//28
f 72//28 97//55 96//54 71//28
f 73//28 98//33 97//55 72//28
f 74//28 99//34 98//33 73//28
f 75//28 100//56 99//34 74//28
f 76//28 101//57 100//56 75//28
f 77//28 102//58 101//57 76//28
f 78//28 103//59 102//58 77//28
f 54//28 104//60 103//59 78//28
f 53//28 79//38 104//60 54//28
f 91//49 92//50 118//61 117//62
f 84//42 85//43 111//63 110//32
f 99//34 100//56 126//64 125//35
f 92//50 93//51 119//65 118//61
f 85//43 86//44 112//66 111//63
f 100//56 101//57 127//67 126//64
f 93//51 94//52 120//68 119//65
f 86//44 87//45 113//69 112//66
f 101//57 102//58 128//70 127//67
f 79//38 80//37 105//71 106//72
f 94//52 95//53 121//73 120//68
f 87//45 88//46 114//74 113//69
f 102//58 103//59 129//75 128//70
f 80//37 81//39 107//76 105//71
f 95//53 96//54 122//77 121//73
f 88//46 89//47 115//78 114//74
f 103//59 104//60 130//79 129//75
f 81//39 82//40 108//80 107//76
f 96//54 97//55 123//81 122//77
f 89//47 90//48 116//82 115//78
f 104//60 79//38 106//72 130//79
f 82//40 83//41 109//31 108//80
f 97//55 98//33 124//36 123//81
f 90//48 91//49 117//62 116//82
f 83//41 84//42 110//32 109//31
f 135//28 136//28 162//42 161//41
f 124//36 125//35 151//28 150//28
f 117//62 118//61 144//28 143//28
f 110//32 111//63 137//28 136//28
f 125//35 126//64 152//28 151//28
f 118//61 119//65 145//28 144//28
f 111//63 112//66 138//28 137//28
f 126//64 127//67 153//28 152//28
f 119//65 120//68 146//28 145//28
f 112//66 113//69 139//28 138//28
f 127//67 128//70 154//28 153//28
f 106//72 105//71 131//28 132//28
f 120//68 121//73 147//28 146//28
f 113//69 114//74 140//28 139//28
f 128//70 129//75 155//28 154//28
f 105//71 107//76 133//28 131//28
f 121//73 122//77 148//28 147//28
f 114//74 115//78 141//28 140//28
f 129//75 130//79 156//28 155//28
f 107//76 108//80 134//28 133//28
f 122//77 123//81 149//28 148//28
f 115//78 116//82 142//28 141//28
f 130//79 106//72 132//28 156//28
f 108//80 109//31 135//28 134//28
f 123//81 124//36 150//28 149//28
f 116//82 117//62 143//28 142//28
f 168//48 169//49 195//62 194//82
f 150//28 151//28 177//34 176//33
f 143//28 144//28 170//50 169//49
f 136//28 137//28 163//43 162//42
f 151//28 152//28 178//56 177//34
f 144//28 145//28 171//51 170//50
f 137//28 138//28 164//44 163//43
f 152//28 153//28 179//57 178//56
f 145//28 146//28 172//52 171//51
f 138//28 139//28 165//45 164//44
f 153//28 154//28 180//58 179//57
f 132//28 131//28 157//37 158//38
f 146//28 147//28 173//53 172//52
f 139//28 140//28 166//46 165//45
f 154//28 155//28 181//59 180//58
f 131//28 133//28 159//39 157//37
f 147//28 148//28 174//54 173//53
f 140//28 141//28 167//47 166//46
f 155//28 156//28 182//60 181//59
f 133//28 134//28 160//40 159//39
f 148//28 149//28 175//55 174//54
f 141//28 142//28 168//48 167//47
f 156//28 132//28 158//38 182//60
f 134//28 135//28 161//41 160//40
f 149//28 150//28 176//33 175//55
f 142//28 143//28 169//49 168//48
f 184//72 183//71 185//76 186//80 187//31 188//32 189//63 190//66 191//69 192//74 193//78 194//82 195//62 196//61 197//65 198//68 199//73 200//77 201//81 202//36 203//35 204//64 205//67 206//70 207//75 208//79
f 161//41 162//42 188//32 187//31
f 176//33 177//34 203//35 202//36
f 169//49 170//50 196//61 195//62
f 162//42 163//43 189//63 188//32
f 177//34 178//56 204//64 203//35
f 170//50 171//51 197//65 196//61
f 163//43 164//44 190//66 189//63
f 178//56 179//57 205//67 204//64
f 171//51 172//52 198//68 197//65
f 164//44 165//45 191//69 190//66
f 179//57 180//58 206//70 205//67
f 158//38 157//37 183//71 184//72
f 172//52 173//53 199//73 198//68
f 165//45 166//46 192//74 191//69
f 180//58 181//59 207//75 206//70
f 157//37 159//39 185//76 183//71
f 173//53 174//54 200//77 199//73
f 166//46 167//47 193//78 192//74
f 181//59 182//60 208//79 207//75
f 159//39 160//40 186//80 185//76
f 174//54 175//55 201//81 200//77
f 167//47 168//48 194//82 193//78
f 182//60 158//38 184//72 208//79
f 160//40 161//41 187//31 186//80
f 175//55 176//33 202//36 201//81
f 18//28 17//28 225//83 226//84
f 11//28 10//28 218//85 219//86
f 26//28 25//28 233//87 234//88
f 4//28 3//28 211//30 212//89
f 19//28 18//28 226//84 227//90
f 12//28 11//28 219//86 220//91
f 1//28 26//28 234//88 210//92
f 5//28 4//28 212//89 213//93
f 20//28 19//28 227//90 228//94
f 13//28 12//28 220//91 221//95
f 6//28 5//28 213//93 214//96
f 21//28 20//28 228//94 229//97
f 14//28 13//28 221//95 222//98
f 7//28 6//28 214//96 215//99
f 22//28 21//28 229//97 230//100
f 15//28 14//28 222//98 223//101
f 8//28 7//28 215//99 216//102
f 23//28 22//28 230//100 231//103
f 16//28 15//28 223//101 224//104
f 9//28 8//28 216//102 217//105
f 24//28 23//28 231//103 232//106
f 2//28 1//28 210//92 209//29
f 17//28 16//28 224//104 225//83
f 10//28 9//28 217//105 218//85
f 25//28 24//28 232//106 233//87
f 239//107 238//108 264//109 265//110
f 254//111 253//112 279//113 280//114
f 247//115 246//116 272//117 273//118
f 240//119 239//107 265//110 266//120
f 255//121 254//111 280//114 281//122
f 248//123 247//115 273//118 274//124
f 241//125 240//119 266//120 267//126
f 256//127 255//121 281//122 282//128
f 249//129 248//123 274//124 275//130
f 242//131 241//125 267//126 268//132
f 257//133 256//127 282//128 283//134
f 250//135 249//129 275//130 276//136
f 243//137 242//131 268//132 269//138
f 258//139 257//133 283//134 284//140
f 235//141 236//142 262//143 261//144
f 251//145 250//135 276//136 277//146
f 244//147 243//137 269//138 270//148
f 259//149 258//139 284//140 285//150
f 237//151 235//141 261//144 263//152
f 252//153 251//145 277//146 278//154
f 245//155 244//147 270//148 271//156
f 260//157 259//149 285//150 286//158
f 238//108 237//151 263//152 264//109
f 253//112 252//153 278//154 279//113
f 246//116 245//155 271//156 272//117
f 236//142 260//157 286//158 262//143
