# Blender v2.79 (sub 0) OBJ File: 'trafiic_light10.blend'
# www.blender.org
mtllib green_light.mtl
o Esfera.000
v 7.094099 10.297933 -1.056584
v 6.862771 10.297933 -0.888514
v 7.113254 10.226448 -1.056584
v 7.001559 10.161961 -0.990868
v 6.912917 10.110784 -0.888514
v 6.856006 10.077926 -0.759540
v 6.836395 10.066604 -0.616571
v 7.165584 10.174118 -1.056584
v 7.101097 10.062423 -0.990868
v 7.049920 9.973782 -0.888514
v 7.017062 9.916870 -0.759540
v 7.005740 9.897260 -0.616571
v 7.237068 10.154963 -1.056584
v 7.237068 10.025990 -0.990868
v 7.237068 9.923635 -0.888514
v 7.237068 9.857920 -0.759540
v 7.237068 9.835276 -0.616571
v 7.308553 10.174118 -1.056584
v 7.373039 10.062423 -0.990868
v 7.424217 9.973782 -0.888514
v 7.457075 9.916870 -0.759540
v 7.468397 9.897260 -0.616571
v 7.360883 10.226448 -1.056584
v 7.472578 10.161962 -0.990868
v 7.561219 10.110784 -0.888514
v 7.618131 10.077927 -0.759540
v 7.637741 10.066605 -0.616571
v 7.380037 10.297933 -1.056584
v 7.509011 10.297933 -0.990868
v 7.611365 10.297933 -0.888514
v 7.677081 10.297933 -0.759540
v 7.699725 10.297933 -0.616571
v 7.360883 10.369417 -1.056584
v 7.472578 10.433905 -0.990868
v 7.561219 10.485082 -0.888514
v 7.618131 10.517940 -0.759540
v 7.637741 10.529261 -0.616571
v 7.237068 10.297933 -1.079228
v 7.308553 10.421747 -1.056584
v 7.373039 10.533442 -0.990868
v 7.424217 10.622084 -0.888514
v 7.457075 10.678995 -0.759540
v 7.468397 10.698606 -0.616571
v 7.237068 10.440902 -1.056584
v 7.237068 10.569876 -0.990868
v 7.237068 10.672230 -0.888514
v 7.237068 10.737946 -0.759540
v 7.237068 10.760590 -0.616571
v 7.165584 10.421747 -1.056584
v 7.101097 10.533442 -0.990868
v 7.049919 10.622084 -0.888514
v 7.017062 10.678995 -0.759540
v 7.005740 10.698606 -0.616571
v 7.113254 10.369417 -1.056584
v 7.001559 10.433904 -0.990868
v 6.912917 10.485081 -0.888514
v 6.856006 10.517939 -0.759540
v 6.836396 10.529261 -0.616571
v 6.965125 10.297933 -0.990868
v 6.797055 10.297933 -0.759540
v 6.774411 10.297933 -0.616571
vn -0.6043 0.0000 -0.7967
vn -0.3322 0.0000 -0.9432
vn -0.2877 -0.1661 -0.9432
vn -0.5233 -0.3021 -0.7967
vn -0.8048 0.0000 0.5935
vn -0.6970 -0.4024 0.5935
vn -0.4024 -0.6970 0.5935
vn 0.0000 -0.8048 0.5935
vn 0.4024 -0.6970 0.5935
vn 0.6970 -0.4024 0.5935
vn 0.8048 0.0000 0.5935
vn 0.6970 0.4024 0.5935
vn 0.4024 0.6970 0.5935
vn 0.0000 0.8048 0.5935
vn -0.4024 0.6970 0.5935
vn -0.6970 0.4024 0.5935
vn -0.8176 0.0000 -0.5758
vn -0.7081 -0.4088 -0.5758
vn -0.9534 0.0000 -0.3017
vn -0.8256 -0.4767 -0.3017
vn 0.0000 0.0000 -1.0000
vn -0.1661 -0.2877 -0.9432
vn -0.3021 -0.5233 -0.7967
vn -0.4088 -0.7081 -0.5758
vn -0.4767 -0.8256 -0.3017
vn 0.0000 -0.9534 -0.3017
vn 0.0000 -0.3322 -0.9432
vn 0.0000 -0.6043 -0.7967
vn 0.0000 -0.8176 -0.5758
vn 0.1661 -0.2877 -0.9432
vn 0.4767 -0.8256 -0.3017
vn 0.3021 -0.5233 -0.7967
vn 0.4088 -0.7081 -0.5758
vn 0.7081 -0.4088 -0.5758
vn 0.8256 -0.4767 -0.3017
vn 0.2877 -0.1661 -0.9432
vn 0.5233 -0.3021 -0.7967
vn 0.6043 0.0000 -0.7967
vn 0.8176 0.0000 -0.5758
vn 0.9534 0.0000 -0.3017
vn 0.3322 0.0000 -0.9432
vn 0.5233 0.3021 -0.7967
vn 0.7081 0.4088 -0.5758
vn 0.8256 0.4767 -0.3017
vn 0.2877 0.1661 -0.9432
vn 0.1661 0.2877 -0.9432
vn 0.3021 0.5233 -0.7967
vn 0.4088 0.7081 -0.5758
vn 0.4767 0.8256 -0.3017
vn 0.0000 0.9534 -0.3017
vn 0.0000 0.3322 -0.9432
vn 0.0000 0.6043 -0.7967
vn 0.0000 0.8176 -0.5758
vn -0.4088 0.7081 -0.5758
vn -0.4767 0.8256 -0.3017
vn -0.1661 0.2877 -0.9432
vn -0.3021 0.5233 -0.7967
vn -0.7081 0.4088 -0.5758
vn -0.8256 0.4767 -0.3017
vn -0.2877 0.1661 -0.9432
vn -0.5233 0.3021 -0.7967
usemtl Material.003
s 1
f 59//1 1//2 3//3 4//4
f 61//5 7//6 12//7 17//8 22//9 27//10 32//11 37//12 43//13 48//14 53//15 58//16
f 2//17 59//1 4//4 5//18
f 60//19 2//17 5//18 6//20
f 1//2 38//21 3//3
f 61//5 60//19 6//20 7//6
f 4//4 3//3 8//22 9//23
f 5//18 4//4 9//23 10//24
f 6//20 5//18 10//24 11//25
f 3//3 38//21 8//22
f 7//6 6//20 11//25 12//7
f 12//7 11//25 16//26 17//8
f 9//23 8//22 13//27 14//28
f 10//24 9//23 14//28 15//29
f 11//25 10//24 15//29 16//26
f 8//22 38//21 13//27
f 13//27 38//21 18//30
f 17//8 16//26 21//31 22//9
f 14//28 13//27 18//30 19//32
f 15//29 14//28 19//32 20//33
f 16//26 15//29 20//33 21//31
f 21//31 20//33 25//34 26//35
f 18//30 38//21 23//36
f 22//9 21//31 26//35 27//10
f 19//32 18//30 23//36 24//37
f 20//33 19//32 24//37 25//34
f 25//34 24//37 29//38 30//39
f 26//35 25//34 30//39 31//40
f 23//36 38//21 28//41
f 27//10 26//35 31//40 32//11
f 24//37 23//36 28//41 29//38
f 30//39 29//38 34//42 35//43
f 31//40 30//39 35//43 36//44
f 28//41 38//21 33//45
f 32//11 31//40 36//44 37//12
f 29//38 28//41 33//45 34//42
f 34//42 33//45 39//46 40//47
f 35//43 34//42 40//47 41//48
f 36//44 35//43 41//48 42//49
f 33//45 38//21 39//46
f 37//12 36//44 42//49 43//13
f 43//13 42//49 47//50 48//14
f 40//47 39//46 44//51 45//52
f 41//48 40//47 45//52 46//53
f 42//49 41//48 46//53 47//50
f 39//46 38//21 44//51
f 47//50 46//53 51//54 52//55
f 44//51 38//21 49//56
f 48//14 47//50 52//55 53//15
f 45//52 44//51 49//56 50//57
f 46//53 45//52 50//57 51//54
f 52//55 51//54 56//58 57//59
f 49//56 38//21 54//60
f 53//15 52//55 57//59 58//16
f 50//57 49//56 54//60 55//61
f 51//54 50//57 55//61 56//58
f 56//58 55//61 59//1 2//17
f 57//59 56//58 2//17 60//19
f 54//60 38//21 1//2
f 58//16 57//59 60//19 61//5
f 55//61 54//60 1//2 59//1
