# Blender v2.79 (sub 0) OBJ File: 'edificioG.blend'
# www.blender.org
mtllib edificio333.mtl
o Cubo.003_Cubo.032
v -7.405113 -1.473326 5.014993
v -7.405113 1.473326 5.014993
v -7.405113 -1.473326 -6.738074
v -7.405113 1.473326 -6.738074
v 7.379356 -1.473326 5.014993
v 7.379356 1.473326 5.014993
v 7.379356 -1.473326 -6.738074
v 7.379356 1.473326 -6.738074
v -7.405113 1.096011 5.014993
v -7.405113 1.096011 -6.738074
v 7.379356 1.096011 -6.738074
v 7.379356 1.096011 5.014993
v -7.405113 1.096011 5.272704
v -7.405113 1.473326 5.272704
v 7.379356 1.473326 5.272704
v 7.379356 1.096011 5.272704
v -7.405113 -1.148630 -6.738074
v 7.379356 -1.148630 -6.738074
v 7.379356 -1.148630 5.014993
v -7.405113 -1.148630 5.014993
v -3.093587 -1.149012 5.096332
v -2.922967 -0.308681 5.096332
v -3.093587 -1.149012 4.927472
v -2.937775 -0.314874 5.096332
v -2.367633 -1.149012 5.096332
v -2.508638 -1.001672 5.096332
v -2.367633 -1.149012 4.927472
v -2.952582 -1.001672 5.096332
v -3.045159 -0.156575 5.096332
v -3.093587 -0.222780 5.096332
v -3.069373 -0.165445 5.096332
v -3.087099 -0.189678 5.096332
v -3.093587 -0.222780 4.927472
v -3.045159 -0.156575 4.927472
v -3.087099 -0.189678 4.927472
v -3.069373 -0.165445 4.927472
v -2.367633 -0.222780 5.096332
v -2.416061 -0.156575 5.096332
v -2.374121 -0.189678 5.096332
v -2.391847 -0.165445 5.096332
v -2.416061 -0.156575 4.927472
v -2.367633 -0.222780 4.927472
v -2.391847 -0.165445 4.927472
v -2.374121 -0.189678 4.927472
v -2.948615 -0.331795 5.096332
v -2.952582 -0.354910 5.096332
v -2.538253 -0.308681 5.096332
v -2.523445 -0.314874 5.096332
v -2.512605 -0.331795 5.096332
v -2.508638 -0.354910 5.096332
v -2.508638 -1.001672 5.068585
v -2.508638 -0.354910 5.068585
v -2.512605 -0.331795 5.068585
v -2.538253 -0.308681 5.068585
v -2.523445 -0.314874 5.068585
v -2.952582 -0.354910 5.068585
v -2.948615 -0.331795 5.068585
v -2.952582 -1.001672 5.068585
v -2.937775 -0.314874 5.068585
v -2.922967 -0.308681 5.068585
v -2.508638 -0.406853 5.068585
v -2.952582 -0.407911 5.068585
v -2.508638 -0.946437 5.068585
v -2.952582 -0.946437 5.068585
v -2.908099 -0.407805 5.068585
v -2.908102 -0.946437 5.068585
v -2.571660 -0.407004 5.068585
v -2.571656 -0.946437 5.068585
v -2.860037 -0.407691 5.068585
v -2.811974 -0.407576 5.068585
v -2.763911 -0.407462 5.068585
v -2.715848 -0.407347 5.068585
v -2.667786 -0.407233 5.068585
v -2.619723 -0.407118 5.068585
v -2.860038 -0.946437 5.068585
v -2.811974 -0.946437 5.068585
v -2.763911 -0.946437 5.068585
v -2.715847 -0.946437 5.068585
v -2.667783 -0.946437 5.068585
v -2.619719 -0.946437 5.068585
v 7.379356 -1.148630 5.096346
v 7.379356 -1.473326 5.096346
v -7.405113 -1.473326 5.096346
v -7.405113 -1.148630 5.096346
v -0.892208 -1.149415 5.096332
v -0.721588 0.018990 5.096332
v -0.892208 -1.149415 4.927472
v -0.736395 0.010379 5.096332
v -0.166254 -1.149415 5.096332
v -0.307258 -0.944552 5.096332
v -0.166254 -1.149415 4.927472
v -0.751203 -0.944552 5.096332
v -0.843780 0.230480 5.096332
v -0.892208 0.138427 5.096332
v -0.867994 0.218147 5.096332
v -0.885720 0.184453 5.096332
v -0.892208 0.138427 4.927472
v -0.843780 0.230480 4.927472
v -0.885720 0.184453 4.927472
v -0.867994 0.218147 4.927472
v -0.166254 0.138427 5.096332
v -0.214682 0.230480 5.096332
v -0.172742 0.184453 5.096332
v -0.190468 0.218147 5.096332
v -0.214682 0.230480 4.927472
v -0.166254 0.138427 4.927472
v -0.190468 0.218147 4.927472
v -0.172742 0.184453 4.927472
v -0.747235 -0.013149 5.096332
v -0.751203 -0.045287 5.096332
v -0.336874 0.018990 5.096332
v -0.322066 0.010379 5.096332
v -0.311226 -0.013149 5.096332
v -0.307258 -0.045287 5.096332
v -0.307258 -0.944552 5.068585
v -0.307258 -0.045287 5.068585
v -0.311226 -0.013149 5.068585
v -0.336874 0.018990 5.068585
v -0.322066 0.010379 5.068585
v -0.751203 -0.045287 5.068585
v -0.747235 -0.013149 5.068585
v -0.751203 -0.944552 5.068585
v -0.736395 0.010379 5.068585
v -0.721588 0.018990 5.068585
v -0.307258 -0.117510 5.068585
v -0.751203 -0.118981 5.068585
v -0.307258 -0.867753 5.068585
v -0.751203 -0.867754 5.068585
v -0.706720 -0.293016 5.068585
v -0.706722 -0.867753 5.068585
v -0.370281 -0.291901 5.068585
v -0.370276 -0.867753 5.068585
v -0.658657 -0.292856 5.068585
v -0.639401 -0.292697 5.068585
v -0.436290 -0.292219 5.068585
v -0.418344 -0.292060 5.068585
v -0.658659 -0.867753 5.068585
v -0.639401 -0.867753 5.068585
v -0.436288 -0.867753 5.068585
v -0.418340 -0.867753 5.068585
v 2.060106 -1.149012 5.096332
v 2.230726 -0.308681 5.096332
v 2.060106 -1.149012 4.927472
v 2.215918 -0.314874 5.096332
v 2.786060 -1.149012 5.096332
v 2.645055 -1.001672 5.096332
v 2.786060 -1.149012 4.927472
v 2.201110 -1.001672 5.096332
v 2.108534 -0.156575 5.096332
v 2.060106 -0.222780 5.096332
v 2.084320 -0.165445 5.096332
v 2.066594 -0.189678 5.096332
v 2.060106 -0.222780 4.927472
v 2.108534 -0.156575 4.927472
v 2.066594 -0.189678 4.927472
v 2.084320 -0.165445 4.927472
v 2.786060 -0.222780 5.096332
v 2.737632 -0.156575 5.096332
v 2.779572 -0.189678 5.096332
v 2.761846 -0.165445 5.096332
v 2.737632 -0.156575 4.927472
v 2.786060 -0.222780 4.927472
v 2.761846 -0.165445 4.927472
v 2.779572 -0.189678 4.927472
v 2.205078 -0.331795 5.096332
v 2.201110 -0.354910 5.096332
v 2.615440 -0.308681 5.096332
v 2.630247 -0.314874 5.096332
v 2.641088 -0.331795 5.096332
v 2.645055 -0.354910 5.096332
v 2.645055 -1.001672 5.068585
v 2.645055 -0.354910 5.068585
v 2.641088 -0.331795 5.068585
v 2.615440 -0.308681 5.068585
v 2.630247 -0.314874 5.068585
v 2.201110 -0.354910 5.068585
v 2.205078 -0.331795 5.068585
v 2.201110 -1.001672 5.068585
v 2.215918 -0.314874 5.068585
v 2.230726 -0.308681 5.068585
v 2.645055 -0.406853 5.068585
v 2.201110 -0.407911 5.068585
v 2.645055 -0.946437 5.068585
v 2.201110 -0.946437 5.068585
v 2.245593 -0.407805 5.068585
v 2.245591 -0.946437 5.068585
v 2.582033 -0.407004 5.068585
v 2.582037 -0.946437 5.068585
v 2.293656 -0.407691 5.068585
v 2.341719 -0.407576 5.068585
v 2.389781 -0.407462 5.068585
v 2.437844 -0.407347 5.068585
v 2.485907 -0.407233 5.068585
v 2.533970 -0.407118 5.068585
v 2.293655 -0.946437 5.068585
v 2.341718 -0.946437 5.068585
v 2.389782 -0.946437 5.068585
v 2.437846 -0.946437 5.068585
v 2.485910 -0.946437 5.068585
v 2.533974 -0.946437 5.068585
v 5.002114 -1.149012 5.096332
v 5.172734 -0.308681 5.096332
v 5.002114 -1.149012 4.927472
v 5.157927 -0.314874 5.096332
v 5.728068 -1.149012 5.096332
v 5.587064 -1.001672 5.096332
v 5.728068 -1.149012 4.927472
v 5.143118 -1.001672 5.096332
v 5.050542 -0.156575 5.096332
v 5.002114 -0.222780 5.096332
v 5.026328 -0.165445 5.096332
v 5.008602 -0.189678 5.096332
v 5.002114 -0.222780 4.927472
v 5.050542 -0.156575 4.927472
v 5.008602 -0.189678 4.927472
v 5.026328 -0.165445 4.927472
v 5.728068 -0.222780 5.096332
v 5.679640 -0.156575 5.096332
v 5.721580 -0.189678 5.096332
v 5.703854 -0.165445 5.096332
v 5.679640 -0.156575 4.927472
v 5.728068 -0.222780 4.927472
v 5.703854 -0.165445 4.927472
v 5.721580 -0.189678 4.927472
v 5.147087 -0.331795 5.096332
v 5.143118 -0.354910 5.096332
v 5.557448 -0.308681 5.096332
v 5.572256 -0.314874 5.096332
v 5.583096 -0.331795 5.096332
v 5.587064 -0.354910 5.096332
v 5.587064 -1.001672 5.068585
v 5.587064 -0.354910 5.068585
v 5.583096 -0.331795 5.068585
v 5.557448 -0.308681 5.068585
v 5.572256 -0.314874 5.068585
v 5.143118 -0.354910 5.068585
v 5.147087 -0.331795 5.068585
v 5.143118 -1.001672 5.068585
v 5.157927 -0.314874 5.068585
v 5.172734 -0.308681 5.068585
v 5.587064 -0.406853 5.068585
v 5.143118 -0.407911 5.068585
v 5.587064 -0.946437 5.068585
v 5.143118 -0.946437 5.068585
v 5.187602 -0.407805 5.068585
v 5.187599 -0.946437 5.068585
v 5.524041 -0.407004 5.068585
v 5.524045 -0.946437 5.068585
v 5.235664 -0.407691 5.068585
v 5.283727 -0.407576 5.068585
v 5.331790 -0.407462 5.068585
v 5.379853 -0.407347 5.068585
v 5.427916 -0.407233 5.068585
v 5.475978 -0.407118 5.068585
v 5.235663 -0.946437 5.068585
v 5.283727 -0.946437 5.068585
v 5.331790 -0.946437 5.068585
v 5.379855 -0.946437 5.068585
v 5.427918 -0.946437 5.068585
v 5.475982 -0.946437 5.068585
v -5.573280 -1.149012 5.096332
v -5.402661 -0.308681 5.096332
v -5.573280 -1.149012 4.927472
v -5.417469 -0.314874 5.096332
v -4.847326 -1.149012 5.096332
v -4.988331 -1.001672 5.096332
v -4.847326 -1.149012 4.927472
v -5.432276 -1.001672 5.096332
v -5.524852 -0.156575 5.096332
v -5.573280 -0.222780 5.096332
v -5.549067 -0.165445 5.096332
v -5.566793 -0.189678 5.096332
v -5.573280 -0.222780 4.927472
v -5.524852 -0.156575 4.927472
v -5.566793 -0.189678 4.927472
v -5.549067 -0.165445 4.927472
v -4.847326 -0.222780 5.096332
v -4.895755 -0.156575 5.096332
v -4.853815 -0.189678 5.096332
v -4.871541 -0.165445 5.096332
v -4.895755 -0.156575 4.927472
v -4.847326 -0.222780 4.927472
v -4.871541 -0.165445 4.927472
v -4.853815 -0.189678 4.927472
v -5.428308 -0.331795 5.096332
v -5.432276 -0.354910 5.096332
v -5.017947 -0.308681 5.096332
v -5.003139 -0.314874 5.096332
v -4.992299 -0.331795 5.096332
v -4.988331 -0.354910 5.096332
v -4.988331 -1.001672 5.068585
v -4.988331 -0.354910 5.068585
v -4.992299 -0.331795 5.068585
v -5.017947 -0.308681 5.068585
v -5.003139 -0.314874 5.068585
v -5.432276 -0.354910 5.068585
v -5.428308 -0.331795 5.068585
v -5.432276 -1.001672 5.068585
v -5.417469 -0.314874 5.068585
v -5.402661 -0.308681 5.068585
v -4.988331 -0.406853 5.068585
v -5.432276 -0.407911 5.068585
v -4.988331 -0.946437 5.068585
v -5.432276 -0.946437 5.068585
v -5.387793 -0.407805 5.068585
v -5.387795 -0.946437 5.068585
v -5.051353 -0.407004 5.068585
v -5.051349 -0.946437 5.068585
v -5.339730 -0.407691 5.068585
v -5.291667 -0.407576 5.068585
v -5.243605 -0.407462 5.068585
v -5.195542 -0.407347 5.068585
v -5.147479 -0.407233 5.068585
v -5.099416 -0.407118 5.068585
v -5.339732 -0.946437 5.068585
v -5.291668 -0.946437 5.068585
v -5.243604 -0.946437 5.068585
v -5.195540 -0.946437 5.068585
v -5.147477 -0.946437 5.068585
v -5.099412 -0.946437 5.068585
vn 0.0000 -1.0000 0.0000
vn -1.0000 0.0000 0.0000
vn 0.0000 0.0000 -1.0000
vn 1.0000 0.0000 0.0000
vn 0.0000 1.0000 0.0000
vn 0.0000 0.0000 1.0000
vn 0.8420 -0.5394 0.0000
vn -0.3440 0.9390 0.0000
vn -0.8071 0.5904 0.0000
vn -0.9813 0.1923 0.0000
vn 0.3440 0.9390 0.0000
vn 0.8071 0.5904 0.0000
vn 0.9813 0.1923 0.0000
vn 0.9856 -0.1692 0.0000
vn -0.9856 -0.1692 0.0000
vn 0.3859 -0.9226 0.0000
vn -0.3859 -0.9226 0.0000
vn -0.8420 -0.5394 0.0000
vn 0.9082 -0.4185 0.0000
vn -0.4538 0.8911 0.0000
vn -0.8850 0.4656 0.0000
vn -0.9902 0.1396 0.0000
vn 0.4538 0.8911 0.0000
vn 0.8850 0.4656 0.0000
vn 0.9902 0.1396 0.0000
vn 0.9925 -0.1225 0.0000
vn -0.9925 -0.1225 0.0000
vn 0.5027 -0.8645 0.0000
vn -0.5027 -0.8644 0.0000
vn -0.9082 -0.4185 0.0000
vn -0.9813 0.1924 0.0000
vn 0.9813 0.1924 0.0000
vn 0.3859 -0.9225 0.0000
vn -0.3859 -0.9225 0.0000
usemtl Material.004
s off
f 1//1 5//1 82//1 83//1
usemtl Material.001
f 9//2 2//2 4//2 10//2
f 10//3 4//3 8//3 11//3
f 11//4 8//4 6//4 12//4
f 2//2 9//2 13//2 14//2
f 8//5 4//5 2//5 6//5
f 16//6 15//6 14//6 13//6
f 12//4 6//4 15//4 16//4
f 6//5 2//5 14//5 15//5
f 9//1 12//1 16//1 13//1
usemtl Material.009
f 1//2 20//2 17//2 3//2
f 3//3 17//3 18//3 7//3
f 7//4 18//4 19//4 5//4
f 41//5 34//5 29//5 38//5
f 27//4 42//4 37//4 25//4
f 24//7 45//7 57//7 59//7
f 21//2 30//2 33//2 23//2
f 23//1 27//1 25//1 21//1
f 23//3 33//3 35//3 36//3 34//3 41//3 43//3 44//3 42//3 27//3
f 29//8 34//8 36//8 31//8
f 31//9 36//9 35//9 32//9
f 32//10 35//10 33//10 30//10
f 41//11 38//11 40//11 43//11
f 43//12 40//12 39//12 44//12
f 44//13 39//13 37//13 42//13
f 25//6 37//6 50//6 26//6
f 29//6 31//6 24//6 22//6
f 32//6 30//6 46//6 45//6
f 31//6 32//6 45//6 24//6
f 38//6 29//6 22//6 47//6
f 37//6 39//6 49//6 50//6
f 21//6 25//6 26//6 28//6
f 39//6 40//6 48//6 49//6
f 30//6 21//6 28//6 46//6
f 40//6 38//6 47//6 48//6
f 46//4 28//4 58//4 64//4 62//4 56//4
f 45//14 46//14 56//14 57//14
f 50//15 49//15 53//15 52//15
f 22//16 24//16 59//16 60//16
f 28//5 26//5 51//5 58//5
f 48//17 47//17 54//17 55//17
f 47//1 22//1 60//1 54//1
f 49//18 48//18 55//18 53//18
f 26//2 50//2 52//2 61//2 63//2 51//2
f 82//6 81//6 84//6 83//6
f 19//5 20//5 84//5 81//5
f 5//4 19//4 81//4 82//4
f 20//2 1//2 83//2 84//2
f 105//5 98//5 93//5 102//5
f 91//4 106//4 101//4 89//4
f 88//19 109//19 121//19 123//19
f 85//2 94//2 97//2 87//2
f 87//1 91//1 89//1 85//1
f 87//3 97//3 99//3 100//3 98//3 105//3 107//3 108//3 106//3 91//3
f 93//20 98//20 100//20 95//20
f 95//21 100//21 99//21 96//21
f 96//22 99//22 97//22 94//22
f 105//23 102//23 104//23 107//23
f 107//24 104//24 103//24 108//24
f 108//25 103//25 101//25 106//25
f 89//6 101//6 114//6 90//6
f 93//6 95//6 88//6 86//6
f 96//6 94//6 110//6 109//6
f 95//6 96//6 109//6 88//6
f 102//6 93//6 86//6 111//6
f 101//6 103//6 113//6 114//6
f 85//6 89//6 90//6 92//6
f 103//6 104//6 112//6 113//6
f 94//6 85//6 92//6 110//6
f 104//6 102//6 111//6 112//6
f 110//4 92//4 122//4 128//4 126//4 120//4
f 109//26 110//26 120//26 121//26
f 114//27 113//27 117//27 116//27
f 86//28 88//28 123//28 124//28
f 92//5 90//5 115//5 122//5
f 112//29 111//29 118//29 119//29
f 111//1 86//1 124//1 118//1
f 113//30 112//30 119//30 117//30
f 90//2 114//2 116//2 125//2 127//2 115//2
f 161//5 154//5 149//5 158//5
f 147//4 162//4 157//4 145//4
f 144//7 165//7 177//7 179//7
f 141//2 150//2 153//2 143//2
f 143//1 147//1 145//1 141//1
f 143//3 153//3 155//3 156//3 154//3 161//3 163//3 164//3 162//3 147//3
f 149//8 154//8 156//8 151//8
f 151//9 156//9 155//9 152//9
f 152//10 155//10 153//10 150//10
f 161//11 158//11 160//11 163//11
f 163//12 160//12 159//12 164//12
f 164//13 159//13 157//13 162//13
f 145//6 157//6 170//6 146//6
f 149//6 151//6 144//6 142//6
f 152//6 150//6 166//6 165//6
f 151//6 152//6 165//6 144//6
f 158//6 149//6 142//6 167//6
f 157//6 159//6 169//6 170//6
f 141//6 145//6 146//6 148//6
f 159//6 160//6 168//6 169//6
f 150//6 141//6 148//6 166//6
f 160//6 158//6 167//6 168//6
f 166//4 148//4 178//4 184//4 182//4 176//4
f 165//14 166//14 176//14 177//14
f 170//15 169//15 173//15 172//15
f 142//16 144//16 179//16 180//16
f 148//5 146//5 171//5 178//5
f 168//17 167//17 174//17 175//17
f 167//1 142//1 180//1 174//1
f 169//18 168//18 175//18 173//18
f 146//2 170//2 172//2 181//2 183//2 171//2
f 221//5 214//5 209//5 218//5
f 207//4 222//4 217//4 205//4
f 204//7 225//7 237//7 239//7
f 201//2 210//2 213//2 203//2
f 203//1 207//1 205//1 201//1
f 203//3 213//3 215//3 216//3 214//3 221//3 223//3 224//3 222//3 207//3
f 209//8 214//8 216//8 211//8
f 211//9 216//9 215//9 212//9
f 212//31 215//31 213//31 210//31
f 221//11 218//11 220//11 223//11
f 223//12 220//12 219//12 224//12
f 224//32 219//32 217//32 222//32
f 205//6 217//6 230//6 206//6
f 209//6 211//6 204//6 202//6
f 212//6 210//6 226//6 225//6
f 211//6 212//6 225//6 204//6
f 218//6 209//6 202//6 227//6
f 217//6 219//6 229//6 230//6
f 201//6 205//6 206//6 208//6
f 219//6 220//6 228//6 229//6
f 210//6 201//6 208//6 226//6
f 220//6 218//6 227//6 228//6
f 226//4 208//4 238//4 244//4 242//4 236//4
f 225//14 226//14 236//14 237//14
f 230//15 229//15 233//15 232//15
f 202//33 204//33 239//33 240//33
f 208//5 206//5 231//5 238//5
f 228//34 227//34 234//34 235//34
f 227//1 202//1 240//1 234//1
f 229//18 228//18 235//18 233//18
f 206//2 230//2 232//2 241//2 243//2 231//2
f 281//5 274//5 269//5 278//5
f 267//4 282//4 277//4 265//4
f 264//7 285//7 297//7 299//7
f 261//2 270//2 273//2 263//2
f 263//1 267//1 265//1 261//1
f 263//3 273//3 275//3 276//3 274//3 281//3 283//3 284//3 282//3 267//3
f 269//8 274//8 276//8 271//8
f 271//9 276//9 275//9 272//9
f 272//10 275//10 273//10 270//10
f 281//11 278//11 280//11 283//11
f 283//12 280//12 279//12 284//12
f 284//32 279//32 277//32 282//32
f 265//6 277//6 290//6 266//6
f 269//6 271//6 264//6 262//6
f 272//6 270//6 286//6 285//6
f 271//6 272//6 285//6 264//6
f 278//6 269//6 262//6 287//6
f 277//6 279//6 289//6 290//6
f 261//6 265//6 266//6 268//6
f 279//6 280//6 288//6 289//6
f 270//6 261//6 268//6 286//6
f 280//6 278//6 287//6 288//6
f 286//4 268//4 298//4 304//4 302//4 296//4
f 285//14 286//14 296//14 297//14
f 290//15 289//15 293//15 292//15
f 262//33 264//33 299//33 300//33
f 268//5 266//5 291//5 298//5
f 288//17 287//17 294//17 295//17
f 287//1 262//1 300//1 294//1
f 289//18 288//18 295//18 293//18
f 266//2 290//2 292//2 301//2 303//2 291//2
usemtl Material.010
f 74//6 80//6 68//6 67//6
f 65//6 66//6 75//6 69//6
f 70//6 76//6 77//6 71//6
f 72//6 78//6 79//6 73//6
f 136//6 140//6 132//6 131//6
f 129//6 130//6 137//6 133//6
f 138//6 139//6 135//6 134//6
f 194//6 200//6 188//6 187//6
f 185//6 186//6 195//6 189//6
f 190//6 196//6 197//6 191//6
f 192//6 198//6 199//6 193//6
f 254//6 260//6 248//6 247//6
f 245//6 246//6 255//6 249//6
f 250//6 256//6 257//6 251//6
f 252//6 258//6 259//6 253//6
f 314//6 320//6 308//6 307//6
f 305//6 306//6 315//6 309//6
f 310//6 316//6 317//6 311//6
f 312//6 318//6 319//6 313//6
usemtl Material.011
f 51//6 63//6 68//6 80//6 79//6 78//6 77//6 76//6 75//6 66//6 64//6 58//6
f 62//6 65//6 69//6 70//6 71//6 72//6 73//6 74//6 67//6 61//6 52//6 53//6 55//6 54//6 60//6 59//6 57//6 56//6
f 64//6 66//6 65//6 62//6
f 67//6 68//6 63//6 61//6
f 69//6 75//6 76//6 70//6
f 71//6 77//6 78//6 72//6
f 73//6 79//6 80//6 74//6
f 115//6 127//6 132//6 140//6 139//6 138//6 137//6 130//6 128//6 122//6
f 126//6 129//6 133//6 134//6 135//6 136//6 131//6 125//6 116//6 117//6 119//6 118//6 124//6 123//6 121//6 120//6
f 128//6 130//6 129//6 126//6
f 131//6 132//6 127//6 125//6
f 133//6 137//6 138//6 134//6
f 135//6 139//6 140//6 136//6
f 171//6 183//6 188//6 200//6 199//6 198//6 197//6 196//6 195//6 186//6 184//6 178//6
f 182//6 185//6 189//6 190//6 191//6 192//6 193//6 194//6 187//6 181//6 172//6 173//6 175//6 174//6 180//6 179//6 177//6 176//6
f 184//6 186//6 185//6 182//6
f 187//6 188//6 183//6 181//6
f 189//6 195//6 196//6 190//6
f 191//6 197//6 198//6 192//6
f 193//6 199//6 200//6 194//6
f 231//6 243//6 248//6 260//6 259//6 258//6 257//6 256//6 255//6 246//6 244//6 238//6
f 242//6 245//6 249//6 250//6 251//6 252//6 253//6 254//6 247//6 241//6 232//6 233//6 235//6 234//6 240//6 239//6 237//6 236//6
f 244//6 246//6 245//6 242//6
f 247//6 248//6 243//6 241//6
f 249//6 255//6 256//6 250//6
f 251//6 257//6 258//6 252//6
f 253//6 259//6 260//6 254//6
f 291//6 303//6 308//6 320//6 319//6 318//6 317//6 316//6 315//6 306//6 304//6 298//6
f 302//6 305//6 309//6 310//6 311//6 312//6 313//6 314//6 307//6 301//6 292//6 293//6 295//6 294//6 300//6 299//6 297//6 296//6
f 304//6 306//6 305//6 302//6
f 307//6 308//6 303//6 301//6
f 309//6 315//6 316//6 310//6
f 311//6 317//6 318//6 312//6
f 313//6 319//6 320//6 314//6
usemtl Material.012
f 3//1 7//1 5//1 1//1
f 19//6 12//6 9//6 20//6
f 18//4 11//4 12//4 19//4
f 17//3 10//3 11//3 18//3
f 20//2 9//2 10//2 17//2
