# Blender v2.79 (sub 0) OBJ File: ''
# www.blender.org
mtllib table.mtl
o Cube
v 3.818713 0.692137 -1.428715
v 3.818713 0.692137 1.428715
v -3.818714 0.692137 1.428715
v -3.818712 0.692137 -1.428716
v 3.818715 0.363475 -1.428715
v 3.818711 0.363475 1.428716
v -3.818715 0.363475 1.428715
v -3.818713 0.363475 -1.428715
v -3.196606 -2.153400 1.000461
v -3.196606 0.397253 1.000461
v -3.196606 -2.153400 0.639475
v -3.196606 0.397253 0.639475
v -2.835620 -2.153400 1.000461
v -2.835620 0.397253 1.000461
v -2.835620 -2.153400 0.639475
v -2.835620 0.397253 0.639475
v 2.921923 -2.153400 1.000461
v 2.921923 0.397253 1.000461
v 2.921923 -2.153400 0.639475
v 2.921923 0.397253 0.639475
v 3.282910 -2.153400 1.000461
v 3.282910 0.397253 1.000461
v 3.282910 -2.153400 0.639475
v 3.282910 0.397253 0.639475
v -3.196606 -2.153400 -0.704445
v -3.196606 0.397253 -0.704445
v -3.196606 -2.153400 -1.065431
v -3.196606 0.397253 -1.065431
v -2.835620 -2.153400 -0.704445
v -2.835620 0.397253 -0.704445
v -2.835620 -2.153400 -1.065431
v -2.835620 0.397253 -1.065431
v 2.921923 -2.153400 -0.704445
v 2.921923 0.397253 -0.704445
v 2.921923 -2.153400 -1.065431
v 2.921923 0.397253 -1.065431
v 3.282910 -2.153400 -0.704445
v 3.282910 0.397253 -0.704445
v 3.282910 -2.153400 -1.065431
v 3.282910 0.397253 -1.065431
vn 0.0000 1.0000 0.0000
vn 0.0000 -1.0000 -0.0000
vn 1.0000 -0.0000 0.0000
vn -0.0000 0.0000 1.0000
vn -1.0000 0.0000 -0.0000
vn 0.0000 -0.0000 -1.0000
usemtl Material
s off
f 1//1 4//1 3//1 2//1
f 5//2 6//2 7//2 8//2
f 1//3 2//3 6//3 5//3
f 2//4 3//4 7//4 6//4
f 3//5 4//5 8//5 7//5
f 5//6 8//6 4//6 1//6
f 9//3 11//3 12//3 10//3
f 11//4 15//4 16//4 12//4
f 15//5 13//5 14//5 16//5
f 13//6 9//6 10//6 14//6
f 11//1 9//1 13//1 15//1
f 16//2 14//2 10//2 12//2
f 17//3 19//3 20//3 18//3
f 19//4 23//4 24//4 20//4
f 23//5 21//5 22//5 24//5
f 21//6 17//6 18//6 22//6
f 19//1 17//1 21//1 23//1
f 24//2 22//2 18//2 20//2
f 25//3 27//3 28//3 26//3
f 27//4 31//4 32//4 28//4
f 31//5 29//5 30//5 32//5
f 29//6 25//6 26//6 30//6
f 27//1 25//1 29//1 31//1
f 32//2 30//2 26//2 28//2
f 33//3 35//3 36//3 34//3
f 35//4 39//4 40//4 36//4
f 39//5 37//5 38//5 40//5
f 37//6 33//6 34//6 38//6
f 35//1 33//1 37//1 39//1
f 40//2 38//2 34//2 36//2
